<?xml  version="1.0" encoding="UTF-8"?><svg xmlns="http://www.w3.org/2000/svg" xmlns:xlink="http://www.w3.org/1999/xlink" viewBox="0 0 50 50" version="1.1"><path  d="M0 15v19h4v-9c0-.5.398-1 1-1h3c.5 0 1 .398 1 1v9h4V24c0-2.2-1.8-4-4-4H4v-5zm30 0v19h4V15zm-15 5v10c0 2.2 1.8 4 4 4h5c2.2 0 3.992-1.8 4.094-4V20h-4v8.906c0 .602-.492 1.094-1.094 1.094h-2.906A1.097 1.097 0 0 1 19 28.906V20zm21 0v10c0 2.2 1.8 4 4 4h5c2.2 0 4-1.8 4-4V20h-4v9c0 .5-.398 1-1 1h-3c-.5 0-1-.398-1-1v-9z" id="surface1" fill="#fff" /><metadata><rdf:RDF xmlns:rdf="http://www.w3.org/1999/02/22-rdf-syntax-ns#" xmlns:rdfs="http://www.w3.org/2000/01/rdf-schema#" xmlns:dc="http://purl.org/dc/elements/1.1/" ><rdf:Description about="https://iconscout.com/legal#licenses" dc:title="hulu,filled" dc:description="hulu,filled" dc:publisher="Iconscout" dc:date="2017-12-09" dc:format="image/svg+xml" dc:language="en"><dc:creator><rdf:Bag><rdf:li>Icons8</rdf:li></rdf:Bag></dc:creator></rdf:Description></rdf:RDF></metadata></svg>